<svg width="100px" height="100px" id="skills-root-svg" xmlns="http://www.w3.org/2000/svg" viewBox="0 0 200 200"><path fill="#4a5b63" d="M100.1 2.1c-54.5 0-98.6 44.2-98.6 98.6 0 54.5 44.2 98.6 98.6 98.6 54.5 0 98.6-44.2 98.6-98.6 0-54.5-44.1-98.6-98.6-98.6zm54 106.9h-5.2c-2.5 0-4.9 1.6-4.9 4.1v16.7c0 6.3-4.7 11.3-11 11.3h-5.6c-4.9 0-8.4 4.2-8.4 9v20H86V96.7c0-.6.2-1.2.3-1.8.1-1.2-.4-2.4-1.4-3.1l-5.3-3.7c-.9-.9 0-2.4 1.2-2l5.9 1.4c1.1.3 2.3-.2 3-1.1.7-.9 1.5-1.8 2.4-2.5.6-.5.8-1.2.6-1.9l-1.8-5.8c-.3-1 1.1-1.5 1.7-.9s2.5 3.3 3.6 4.4c1.1 1.1 1.9 1.4 2.8 1.2l3.1-.4c1.6 0 3-1.1 3.3-2.7l1.2-6.3c.2-1.1 1.8-1.1 2 0l1.5 6.8c.4 1.5 1.7 2.8 3.2 2.8h1.8c16.5 0 21-11.3 15.8-22.6-.9-1.9-3.2-2.7-4.9-1.5l-2.8 1.9c-.7.7-1.9-.1-1.6-1.1l3.4-3.3c1.3-1.3 1.4-3.3.1-4.7-.4-.4-.7-.8-1.1-1.2-.5-.5-1-1-1.6-1.4-1.3-1.1-3.3-.9-4.5.3l-3.8 3.9c-.6.9-2 .3-1.9-.8l2-4.6c.8-1.7-.1-3.7-1.8-4.5-1.3-.5-2.6-1-3.9-1.4-1.6-.5-3.4.3-4.1 1.9l-2.1 5.2c-.5 1.3-2.4 1.2-2.7-.2l-.6-6.5c-.2-1.7-1.5-3-3.2-3-2.2 0-4.4.2-6.8.7-1.7.3-2.8 1.8-2.7 3.5l.4 5.8c.1 1.5-1.8 2.3-2.8 1.1l-2.9-5c-.9-1.5-2.7-2.1-4.3-1.3-1.6.8-3.2 1.6-4.7 2.5-1.6.9-2.1 3-1.2 4.6l2.5 4.2c.8 1.3-.6 2.7-1.9 2L67 52.4c-1.5-1.1-3.6-.8-4.7.7-.8 1.1-1.5 2.2-2.1 3.4-.8 1.5-.4 3.4 1.1 4.4l5.2 3.5c1.3.6 1 2.6-.5 2.6l-6-.9c-1.8-.3-3.6 1-3.8 2.9-.1 1-.2 2.1-.3 3.1-.1 1.9 1.3 3.4 3.2 3.5l5.1.2c1.4-.1 1.9 1.8.7 2.4l-5.5 1.9c-1.7.6-2.6 2.4-2.1 4.1.7 2.4 1.7 4.7 3.1 6.7l10.7 16.3C74 111.8 79 124 79 137.1V170h-8v-34c0-9.1-3.6-18.1-8.5-25.8L54 96.7c-11.8-18.6-7-43.3 10.9-56.2 11.5-8.2 25.2-11.1 38.1-9 16.8 2.7 30.8 14.3 37.3 30 .9 2.3 1.7 4.6 2.2 7 1.8 7.6 2.9 13.9 5 16.6l11.6 15.2c2.1 3.9-.7 8.7-5 8.7z"/></svg>